<?xml version="1.0" encoding="UTF-8"?>
<svg width="260px" height="62px" viewBox="0 0 260 62" version="1.1" xmlns="http://www.w3.org/2000/svg" xmlns:xlink="http://www.w3.org/1999/xlink">
    <!-- Generator: Sketch 51 (57462) - http://www.bohemiancoding.com/sketch -->
    <title>招商银行-2</title>
    <desc>Created with Sketch.</desc>
    <defs></defs>
    <g id="CCM视觉设计稿" stroke="none" stroke-width="1" fill="none" fill-rule="evenodd">
        <g id="登录页" transform="translate(-1177.000000, -330.000000)">
            <rect fill="#FFFFFF" x="0" y="0" width="1920" height="1080"></rect>
            <g id="Group-2" transform="translate(1177.000000, 330.000000)" fill-rule="nonzero">
                <g id="招商银行-2">
                    <path d="M82.0890071,59.9152482 C81.2039007,60.8003546 80.0237589,61.685461 78.2535461,61.685461 C75.008156,61.685461 73.2379433,59.9152482 73.2379433,57.5549645 C73.2379433,55.1946809 75.3031915,53.4244681 78.2535461,53.4244681 C79.4336879,53.4244681 80.6138298,54.014539 80.9088652,54.014539 C81.2039007,54.014539 81.4989362,53.7195035 81.4989362,53.4244681 L81.7939716,53.4244681 L81.7939716,56.0797872 L81.4989362,56.0797872 C80.9088652,55.1946809 79.7287234,53.7195035 78.2535461,53.7195035 C76.1882979,53.7195035 75.598227,55.4897163 75.598227,57.2599291 C75.598227,57.85 75.598227,59.0301418 76.1882979,59.9152482 C76.7783688,60.8003546 77.9585106,60.8003546 78.2535461,60.8003546 C79.4336879,60.8003546 80.3187943,60.5053191 81.4989362,59.3251773 L82.0890071,59.9152482 Z M93.3003546,61.3904255 L88.5797872,61.3904255 L88.5797872,61.0953901 C89.4648936,61.0953901 89.7599291,61.0953901 89.7599291,60.2102837 L89.7599291,57.5549645 L86.2195035,57.5549645 L86.2195035,60.2102837 C86.2195035,60.8003546 86.8095745,61.0953901 87.3996454,61.0953901 L87.3996454,61.3904255 L82.679078,61.3904255 L82.679078,61.0953901 C83.5641844,61.0953901 83.8592199,61.0953901 83.8592199,60.2102837 L83.8592199,54.6046099 C83.8592199,53.7195035 83.2691489,53.7195035 82.679078,53.7195035 L82.679078,53.4244681 L87.3996454,53.4244681 L87.3996454,53.7195035 C86.8095745,53.7195035 86.2195035,53.7195035 86.2195035,54.6046099 L86.2195035,56.9648936 L89.7599291,56.9648936 L89.7599291,54.6046099 C89.7599291,53.7195035 89.1698582,53.7195035 88.5797872,53.7195035 L88.5797872,53.4244681 L93.3003546,53.4244681 L93.3003546,53.7195035 C92.7102837,53.7195035 92.1202128,53.7195035 92.1202128,54.6046099 L92.1202128,60.2102837 C92.1202128,60.8003546 92.7102837,60.8003546 93.3003546,61.0953901 L93.3003546,61.3904255 Z M98.9060284,61.3904255 L93.8904255,61.3904255 L93.8904255,61.0953901 C94.7755319,61.0953901 95.0705674,61.0953901 95.0705674,60.2102837 L95.0705674,54.6046099 C95.0705674,53.7195035 94.4804965,53.7195035 93.8904255,53.7195035 L93.8904255,53.4244681 L98.9060284,53.4244681 L98.9060284,53.7195035 C98.3159574,53.7195035 97.4308511,53.7195035 97.4308511,54.6046099 L97.4308511,60.2102837 C97.4308511,60.8003546 98.020922,61.0953901 98.9060284,61.0953901 L98.9060284,61.3904255 Z M99.4960993,61.0953901 C100.381206,61.0953901 100.676241,60.8003546 100.676241,60.2102837 L100.676241,54.6046099 C99.7911348,53.7195035 99.7911348,53.7195035 99.4960993,53.7195035 L99.4960993,53.4244681 L102.446454,53.4244681 L107.462057,58.4400709 L107.462057,54.8996454 C107.462057,54.3095745 107.167021,53.7195035 106.281915,53.7195035 L106.281915,53.4244681 L109.23227,53.4244681 L109.23227,53.7195035 C108.347163,53.7195035 108.052128,54.014539 108.052128,54.6046099 L108.052128,61.3904255 L107.757092,61.3904255 L101.561348,55.1946809 L101.561348,59.9152482 C101.561348,60.8003546 101.856383,61.0953901 103.036525,61.0953901 L103.036525,61.3904255 L99.7911348,61.3904255 L99.7911348,61.0953901 L99.4960993,61.0953901 Z M111.887589,58.7351064 L113.362766,56.0797872 L114.837943,58.7351064 L111.887589,58.7351064 Z M118.96844,61.0953901 C118.378369,61.0953901 118.083333,60.8003546 117.493262,59.6202128 L114.247872,53.7195035 L113.952837,53.7195035 L110.707447,59.9152482 C110.412411,60.8003546 110.117376,61.0953901 109.23227,61.3904255 L109.23227,61.685461 L112.182624,61.685461 L112.182624,61.3904255 C111.592553,61.3904255 111.002482,61.3904255 111.002482,60.8003546 C111.002482,60.5053191 111.297518,60.2102837 111.592553,59.3251773 L114.837943,59.3251773 C115.132979,59.6202128 115.428014,60.5053191 115.428014,60.8003546 C115.428014,61.0953901 115.132979,61.0953901 114.247872,61.0953901 L114.247872,61.3904255 L118.96844,61.3904255 L118.96844,61.0953901 Z M136.080496,61.3904255 L131.359929,61.3904255 L131.359929,61.0953901 C132.245035,61.0953901 132.540071,61.0953901 132.540071,60.2102837 L132.540071,54.3095745 L128.999645,61.0953901 L128.70461,61.0953901 L125.164184,54.6046099 L125.164184,59.9152482 C125.164184,60.8003546 125.45922,61.0953901 126.639362,61.0953901 L126.639362,61.3904255 L123.393972,61.3904255 L123.393972,61.0953901 C124.574113,61.0953901 124.574113,60.8003546 124.574113,60.2102837 L124.574113,54.6046099 C124.574113,54.014539 124.279078,53.7195035 123.393972,53.7195035 L123.393972,53.4244681 L126.934397,53.4244681 L129.884752,58.7351064 L132.835106,53.4244681 L136.375532,53.4244681 L136.375532,53.7195035 C135.490426,53.7195035 135.19539,53.7195035 135.19539,54.8996454 L135.19539,59.9152482 C135.19539,60.8003546 135.490426,60.8003546 136.375532,61.0953901 L136.375532,61.3904255 L136.080496,61.3904255 Z M136.670567,53.7195035 L144.93156,53.7195035 L144.93156,56.0797872 L144.636525,56.0797872 C144.341489,54.3095745 143.161348,54.3095745 141.391135,54.3095745 C140.506028,54.3095745 140.210993,54.3095745 140.210993,54.8996454 L140.210993,57.5549645 C141.68617,57.5549645 142.276241,57.2599291 142.571277,55.7847518 L142.866312,55.7847518 L142.866312,59.6202128 L142.571277,59.6202128 C142.276241,57.85 141.68617,57.5549645 140.210993,57.5549645 L140.210993,60.2102837 C140.210993,60.8003546 140.506028,60.8003546 141.391135,60.8003546 C142.866312,60.8003546 144.341489,60.5053191 145.226596,58.7351064 L145.521631,58.7351064 L144.93156,61.0953901 L136.670567,61.0953901 L136.670567,60.8003546 C137.555674,60.8003546 137.850709,60.8003546 137.850709,59.9152482 L137.850709,54.6046099 C137.850709,54.014539 137.260638,54.014539 136.670567,53.7195035 Z M149.947163,54.3095745 C149.947163,54.014539 149.947163,53.7195035 150.83227,53.7195035 C152.012411,53.7195035 152.602482,54.3095745 152.602482,55.4897163 C152.602482,56.9648936 152.012411,57.2599291 149.947163,57.2599291 L149.947163,54.3095745 Z M156.142908,61.0953901 C155.847872,61.0953901 155.847872,61.0953901 155.552837,60.8003546 L152.602482,57.5549645 C153.487589,57.2599291 154.962766,56.9648936 154.962766,55.4897163 C154.962766,53.4244681 152.012411,53.4244681 150.83227,53.4244681 L146.406738,53.4244681 L146.406738,53.7195035 C147.291844,53.7195035 147.586879,53.7195035 147.586879,54.8996454 L147.586879,59.9152482 C147.586879,60.8003546 147.291844,60.8003546 146.406738,61.0953901 L146.406738,61.3904255 L151.127305,61.3904255 L151.127305,61.0953901 C150.242199,61.0953901 149.947163,61.0953901 149.947163,59.9152482 L149.947163,57.5549645 L150.242199,57.5549645 L153.192553,61.0953901 L156.142908,61.0953901 Z M165.879078,59.9152482 C164.698936,60.8003546 163.81383,61.685461 162.043617,61.685461 C158.798227,61.685461 157.028014,59.9152482 157.028014,57.5549645 C157.028014,55.1946809 159.093262,53.4244681 162.043617,53.4244681 C163.223759,53.4244681 164.403901,54.014539 164.698936,54.014539 C164.993972,54.014539 165.289007,53.7195035 165.289007,53.4244681 L165.584043,53.4244681 L165.584043,56.0797872 L165.289007,56.0797872 C164.698936,55.1946809 163.518794,53.7195035 162.043617,53.7195035 C159.978369,53.7195035 159.388298,55.4897163 159.388298,57.2599291 C159.388298,57.85 159.388298,59.0301418 159.978369,59.9152482 C160.56844,60.8003546 161.748582,60.8003546 162.043617,60.8003546 C163.223759,60.8003546 164.108865,60.5053191 165.289007,59.3251773 L165.879078,59.9152482 Z M177.385461,61.3904255 L172.664894,61.3904255 L172.664894,61.0953901 C173.55,61.0953901 173.845035,61.0953901 173.845035,60.2102837 L173.845035,57.5549645 L170.30461,57.5549645 L170.30461,60.2102837 C170.30461,60.8003546 170.894681,61.0953901 171.484752,61.0953901 L171.484752,61.3904255 L166.764184,61.3904255 L166.764184,61.0953901 C167.649291,61.0953901 167.944326,61.0953901 167.944326,60.2102837 L167.944326,54.6046099 C167.944326,53.7195035 167.354255,53.7195035 166.764184,53.7195035 L166.764184,53.4244681 L171.484752,53.4244681 L171.484752,53.7195035 C170.894681,53.7195035 170.30461,53.7195035 170.30461,54.6046099 L170.30461,56.9648936 L173.845035,56.9648936 L173.845035,54.6046099 C173.845035,53.7195035 173.254965,53.7195035 172.664894,53.7195035 L172.664894,53.4244681 L177.385461,53.4244681 L177.385461,53.7195035 C176.79539,53.7195035 176.205319,53.7195035 176.205319,54.6046099 L176.205319,60.2102837 C176.205319,60.8003546 176.79539,60.8003546 177.385461,61.0953901 L177.385461,61.3904255 Z M180.335816,58.7351064 L181.810993,56.0797872 L183.28617,58.7351064 L180.335816,58.7351064 Z M187.416667,61.0953901 C186.826596,61.0953901 186.53156,60.8003546 185.941489,59.6202128 L182.696099,53.7195035 L182.401064,53.7195035 L179.155674,59.9152482 C178.860638,60.8003546 178.565603,61.0953901 177.680496,61.3904255 L177.680496,61.685461 L180.630851,61.685461 L180.630851,61.3904255 C180.04078,61.3904255 179.450709,61.3904255 179.450709,60.8003546 C179.450709,60.5053191 179.745745,60.2102837 180.04078,59.3251773 L183.28617,59.3251773 C183.581206,59.6202128 183.876241,60.5053191 183.876241,60.8003546 C183.876241,61.0953901 183.581206,61.0953901 182.696099,61.0953901 L182.696099,61.3904255 L187.416667,61.3904255 L187.416667,61.0953901 Z M188.006738,61.0953901 C188.891844,61.0953901 189.186879,60.8003546 189.186879,60.2102837 L189.186879,54.6046099 C188.301773,53.7195035 188.301773,53.7195035 188.006738,53.7195035 L188.006738,53.4244681 L190.957092,53.4244681 L195.972695,58.4400709 L195.972695,54.8996454 C195.972695,54.3095745 195.67766,53.7195035 194.497518,53.7195035 L194.497518,53.4244681 L197.447872,53.4244681 L197.447872,53.7195035 C196.26773,53.7195035 196.26773,54.014539 196.26773,54.6046099 L196.26773,61.3904255 L195.972695,61.3904255 L189.77695,55.1946809 L189.77695,59.9152482 C189.77695,60.8003546 190.071986,61.0953901 191.252128,61.0953901 L191.252128,61.3904255 L188.006738,61.3904255 L188.006738,61.0953901 Z M205.41383,61.3904255 L200.398227,61.3904255 L200.398227,61.0953901 C201.578369,61.0953901 201.873404,61.0953901 201.873404,59.9152482 L201.873404,54.014539 C200.988298,54.014539 199.513121,54.014539 199.218085,56.0797872 L198.92305,56.0797872 L198.92305,53.7195035 L207.479078,53.7195035 L207.479078,56.0797872 L207.184043,56.0797872 C206.889007,54.3095745 205.41383,54.3095745 204.528723,54.014539 L204.528723,59.9152482 C204.528723,60.8003546 204.823759,60.8003546 206.003901,61.0953901 L206.003901,61.3904255 L205.41383,61.3904255 Z M214.264894,55.7847518 C213.969858,54.8996454 213.084752,53.7195035 211.609574,53.7195035 C211.019504,53.7195035 210.134397,54.014539 210.134397,54.8996454 C210.134397,55.4897163 210.429433,55.7847518 211.609574,56.3748227 L213.674823,57.2599291 C214.264894,57.5549645 215.15,58.1450355 215.15,59.3251773 C215.15,60.2102837 214.264894,61.685461 211.609574,61.685461 C210.134397,61.685461 209.544326,61.3904255 209.249291,61.3904255 C208.954255,61.3904255 208.954255,61.685461 208.954255,61.685461 L208.65922,61.685461 L208.65922,58.7351064 L208.954255,58.7351064 C209.249291,59.9152482 210.134397,61.0953901 211.90461,61.0953901 C213.674823,61.0953901 213.674823,59.9152482 213.674823,59.9152482 C213.674823,59.0301418 213.084752,58.7351064 212.199645,58.4400709 L211.314539,58.1450355 C208.954255,57.2599291 208.954255,56.0797872 208.954255,55.7847518 C208.954255,55.1946809 209.249291,53.4244681 212.199645,53.4244681 C213.379787,53.4244681 213.969858,53.7195035 214.559929,53.7195035 C214.854965,53.7195035 214.854965,53.4244681 215.15,53.4244681 L215.445035,53.4244681 L215.445035,55.7847518 L214.264894,55.7847518 Z M222.820922,57.2599291 L223.115957,57.2599291 C224.001064,57.2599291 225.181206,57.5549645 225.181206,59.0301418 C225.181206,59.6202128 224.88617,60.8003546 223.410993,60.8003546 C222.820922,60.8003546 222.525887,60.5053191 222.525887,60.2102837 L222.525887,57.2599291 L222.820922,57.2599291 Z M222.820922,54.6046099 C222.820922,54.3095745 222.820922,54.014539 223.706028,54.014539 C224.88617,54.014539 225.181206,54.6046099 225.181206,55.4897163 C225.181206,56.6698582 224.88617,57.2599291 223.115957,57.2599291 L223.115957,54.6046099 L222.820922,54.6046099 Z M219.280496,61.3904255 L224.001064,61.3904255 C226.951418,61.3904255 228.13156,60.2102837 228.13156,59.3251773 C228.13156,58.1450355 226.656383,57.5549645 225.476241,57.2599291 C226.066312,57.2599291 227.541489,56.9648936 227.541489,55.4897163 C227.541489,53.7195035 224.591135,53.7195035 223.706028,53.7195035 L219.280496,53.7195035 L219.280496,54.014539 C219.870567,54.014539 220.460638,54.014539 220.460638,54.8996454 L220.460638,60.5053191 C220.460638,61.0953901 219.870567,61.3904255 219.280496,61.3904255 Z M230.786879,58.7351064 L232.262057,56.0797872 L233.737234,58.7351064 L230.786879,58.7351064 Z M237.86773,61.0953901 C237.27766,61.0953901 236.982624,60.8003546 236.392553,59.6202128 L233.147163,53.7195035 L232.852128,53.7195035 L229.606738,59.9152482 C229.311702,60.8003546 229.016667,61.0953901 228.13156,61.3904255 L228.13156,61.685461 L231.081915,61.685461 L231.081915,61.3904255 C230.491844,61.3904255 229.901773,61.3904255 229.901773,60.8003546 C229.901773,60.5053191 230.196809,60.2102837 230.491844,59.3251773 L233.737234,59.3251773 C234.03227,59.6202128 234.327305,60.5053191 234.327305,60.8003546 C234.327305,61.0953901 234.03227,61.0953901 233.147163,61.0953901 L233.147163,61.3904255 L237.86773,61.3904255 L237.86773,61.0953901 Z M238.752837,61.0953901 C239.637943,61.0953901 239.932979,60.8003546 239.932979,60.2102837 L239.932979,54.6046099 C239.047872,53.7195035 239.047872,53.7195035 238.752837,53.7195035 L238.752837,53.4244681 L241.703191,53.4244681 L246.718794,58.4400709 L246.718794,54.8996454 C246.718794,54.3095745 246.423759,53.7195035 245.538652,53.7195035 L245.538652,53.4244681 L248.489007,53.4244681 L248.489007,53.7195035 C247.603901,53.7195035 247.308865,54.014539 247.308865,54.6046099 L247.308865,61.3904255 L247.01383,61.3904255 L240.818085,55.1946809 L240.818085,59.9152482 C240.818085,60.8003546 241.113121,61.0953901 242.293262,61.0953901 L242.293262,61.3904255 L239.047872,61.3904255 L239.047872,61.0953901 L238.752837,61.0953901 Z M259.700355,61.3904255 L254.979787,61.3904255 L254.979787,61.0953901 C255.864894,61.0953901 256.159929,61.0953901 256.159929,60.8003546 C256.159929,60.5053191 256.159929,60.5053191 255.864894,60.2102837 L253.209574,57.5549645 L252.914539,57.85 L252.914539,60.2102837 C252.914539,60.8003546 253.50461,60.8003546 254.094681,61.0953901 L254.094681,61.3904255 L249.374113,61.3904255 L249.374113,61.0953901 C250.25922,61.0953901 250.554255,61.0953901 250.554255,60.2102837 L250.554255,54.6046099 C250.554255,53.7195035 249.964184,53.7195035 249.374113,53.7195035 L249.374113,53.4244681 L254.094681,53.4244681 L254.094681,53.7195035 C253.209574,53.7195035 252.914539,53.7195035 252.914539,54.8996454 L252.914539,57.2599291 L255.864894,54.8996454 C256.159929,54.6046099 256.454965,54.6046099 256.454965,54.3095745 C256.454965,54.014539 256.159929,54.014539 255.274823,54.014539 L255.274823,53.7195035 L259.405319,53.7195035 L259.405319,54.014539 C257.930142,54.014539 257.340071,54.6046099 254.979787,56.6698582 L259.405319,61.0953901 C259.700355,61.3904255 259.700355,61.3904255 259.99539,61.3904255 L259.700355,61.3904255 Z" id="Shape" fill="#231815"></path>
                    <path d="M86.2195035,4.1535461 C86.2195035,6.80886525 85.9244681,10.3492908 86.514539,12.7095745 L87.6946809,12.7095745 L87.6946809,13.0046099 L87.9897163,13.0046099 L87.9897163,12.7095745 L89.1698582,12.7095745 C89.4648936,12.1195035 89.7599291,11.5294326 89.7599291,10.3492908 L89.4648936,10.3492908 L89.4648936,9.4641844 L89.1698582,9.4641844 L89.1698582,8.57907801 L88.8748227,8.57907801 L88.8748227,7.69397163 L88.5797872,7.69397163 C88.5797872,7.39893617 88.8748227,6.80886525 88.8748227,6.51382979 C90.9400709,6.80886525 92.7102837,7.10390071 94.7755319,7.39893617 L97.4308511,7.39893617 C98.020922,7.69397163 99.2010638,8.28404255 100.381206,7.98900709 L100.381206,7.69397163 L101.561348,7.69397163 L101.561348,7.39893617 L102.741489,7.39893617 L102.741489,7.10390071 L103.626596,7.10390071 L103.626596,6.80886525 L109.527305,6.80886525 C109.82234,7.69397163 110.117376,7.39893617 110.117376,8.57907801 C109.527305,9.16914894 109.82234,9.75921986 109.527305,10.6443262 L109.23227,10.6443262 L109.23227,11.5294326 L108.937234,11.5294326 L108.937234,12.414539 L108.642199,12.414539 L108.642199,13.2996454 L108.347163,13.2996454 L108.347163,14.1847518 L108.052128,14.1847518 L108.052128,15.0698582 L107.757092,15.0698582 C107.757092,15.6599291 107.462057,15.9549645 107.462057,16.5450355 L107.167021,16.5450355 C107.167021,17.4301418 106.871986,18.0202128 106.871986,18.9053191 L106.57695,18.9053191 L106.57695,19.7904255 L106.281915,19.7904255 L106.281915,20.3804965 L105.986879,20.3804965 C105.986879,20.6755319 105.691844,20.9705674 105.691844,21.5606383 L105.396809,21.5606383 L105.396809,22.4457447 C105.101773,22.4457447 105.101773,22.7407801 104.806738,22.7407801 C104.216667,23.3308511 103.626596,23.920922 103.33156,24.8060284 C102.741489,24.8060284 102.446454,25.1010638 101.856383,25.1010638 C101.856383,25.9861702 101.856383,26.2812057 102.151418,26.8712766 C103.036525,26.8712766 103.626596,27.1663121 104.511702,27.1663121 L104.511702,26.8712766 C105.396809,26.8712766 106.281915,26.5762411 107.462057,26.5762411 C107.462057,27.4613475 107.167021,28.0514184 107.167021,28.9365248 L106.871986,28.9365248 L106.871986,32.1819149 L106.57695,32.1819149 C106.281915,33.0670213 106.871986,34.5421986 106.871986,35.1322695 L106.871986,38.9677305 L107.167021,38.9677305 L107.167021,40.4429078 L107.462057,40.4429078 C107.462057,41.6230496 107.167021,42.8031915 107.167021,43.6882979 C106.281915,43.9833333 105.691844,43.9833333 104.511702,43.6882979 L104.511702,43.3932624 C103.036525,43.3932624 101.561348,43.6882979 100.08617,43.6882979 L100.08617,43.9833333 C99.4960993,43.9833333 98.3159574,43.6882979 98.020922,43.3932624 L90.9400709,43.3932624 L90.9400709,43.6882979 L90.0549645,43.6882979 L90.0549645,43.9833333 C89.4648936,43.9833333 89.7599291,43.9833333 89.4648936,43.6882979 C87.9897163,42.508156 89.1698582,40.7379433 88.5797872,38.672695 C87.9897163,36.0173759 88.5797872,32.1819149 88.5797872,29.5265957 C87.6946809,28.9365248 87.6946809,28.0514184 86.514539,27.756383 L86.514539,27.4613475 L85.6294326,27.4613475 C85.6294326,27.756383 85.3343972,28.0514184 85.3343972,28.6414894 L85.0393617,28.6414894 L85.0393617,34.837234 L85.3343972,34.837234 L85.3343972,35.7223404 L85.6294326,35.7223404 L85.6294326,39.262766 L85.3343972,39.262766 C85.3343972,40.1478723 85.6294326,40.7379433 85.6294326,41.6230496 L85.3343972,41.6230496 C85.3343972,42.2131206 85.0393617,42.8031915 85.0393617,43.098227 C83.5641844,43.6882979 80.6138298,43.3932624 78.5485816,43.3932624 L78.5485816,43.098227 L77.9585106,43.098227 L77.9585106,42.8031915 C77.3684397,42.508156 77.0734043,41.9180851 76.4833333,41.6230496 L76.4833333,41.0329787 L76.7783688,41.0329787 L76.7783688,40.4429078 C77.3684397,40.1478723 77.6634752,39.5578014 78.2535461,39.262766 L78.2535461,38.9677305 L78.843617,38.9677305 L78.843617,38.672695 L80.0237589,38.672695 L80.0237589,38.3776596 L80.3187943,38.3776596 L80.3187943,33.6570922 L79.4336879,31.001773 L78.2535461,31.001773 C77.9585106,31.591844 77.3684397,32.1819149 76.7783688,32.4769504 C76.4833333,32.4769504 75.8932624,32.7719858 75.598227,32.7719858 C75.598227,33.0670213 75.3031915,33.0670213 75.3031915,33.3620567 L74.7131206,33.3620567 L74.7131206,33.6570922 C74.4180851,33.9521277 74.1230496,33.9521277 73.5329787,34.2471631 C72.9429078,31.2968085 71.172695,29.8216312 70.8776596,26.2812057 C72.3528369,26.2812057 73.2379433,25.9861702 74.4180851,25.3960993 L77.0734043,25.3960993 L77.0734043,25.1010638 L77.6634752,25.1010638 C78.2535461,24.8060284 78.5485816,24.2159574 79.4336879,24.2159574 C79.7287234,23.6258865 79.7287234,23.6258865 80.0237589,23.3308511 L80.3187943,23.3308511 L80.3187943,20.6755319 C79.4336879,20.085461 79.7287234,19.4953901 78.2535461,19.4953901 C77.6634752,20.3804965 76.1882979,20.085461 75.3031915,19.7904255 L75.008156,19.4953901 L75.008156,18.0202128 L74.7131206,18.0202128 L74.7131206,17.1351064 L74.4180851,17.1351064 L74.4180851,16.5450355 L74.1230496,16.5450355 L74.1230496,15.9549645 C73.8280142,15.0698582 73.5329787,14.4797872 73.2379433,13.0046099 C75.598227,13.0046099 77.6634752,12.7095745 79.7287234,12.7095745 C80.0237589,12.414539 80.3187943,11.5294326 80.6138298,11.5294326 C80.0237589,8.57907801 79.4336879,5.92375887 79.4336879,3.26843972 C79.7287234,2.97340426 80.0237589,2.97340426 80.6138298,2.97340426 C82.3840426,3.56347518 84.7443262,4.1535461 86.2195035,4.1535461 Z M144.93156,6.21879433 L144.341489,6.21879433 C144.046454,6.80886525 144.046454,7.10390071 143.456383,7.39893617 L143.161348,7.39893617 L143.161348,7.98900709 L142.866312,7.98900709 L142.866312,9.16914894 C143.456383,9.4641844 144.636525,9.4641844 145.816667,9.4641844 C146.406738,10.0542553 147.291844,9.4641844 148.17695,9.4641844 C149.947163,9.4641844 152.012411,9.16914894 153.782624,9.16914894 L153.782624,8.87411348 L154.372695,8.87411348 L154.372695,8.57907801 L155.257801,8.57907801 L155.257801,8.28404255 C156.142908,8.28404255 157.028014,8.57907801 158.208156,8.57907801 C158.208156,8.87411348 158.503191,9.16914894 158.503191,9.4641844 C159.093262,10.0542553 158.798227,12.7095745 158.503191,13.5946809 C158.208156,13.5946809 158.208156,13.8897163 157.913121,13.8897163 L157.913121,15.0698582 L157.618085,15.6599291 C157.32305,15.9549645 157.028014,15.9549645 156.437943,15.9549645 C155.847872,15.3648936 154.66773,15.3648936 153.782624,15.6599291 C153.487589,15.6599291 153.782624,15.9549645 153.487589,15.9549645 C152.012411,15.9549645 150.537234,15.6599291 148.767021,15.6599291 C148.471986,16.5450355 147.881915,17.1351064 147.881915,18.6102837 C148.471986,18.9053191 148.767021,18.9053191 149.652128,18.9053191 C150.537234,18.0202128 152.897518,18.9053191 153.487589,19.2003546 C153.782624,19.7904255 153.782624,20.6755319 153.782624,21.8556738 L154.07766,21.8556738 L154.07766,23.0358156 L154.372695,23.0358156 C154.962766,24.8060284 153.192553,26.2812057 153.782624,28.0514184 C154.07766,29.2315603 153.782624,31.591844 154.07766,33.0670213 L154.372695,33.0670213 C154.372695,33.3620567 154.07766,33.0670213 154.07766,33.3620567 C154.07766,33.9521277 154.372695,33.9521277 154.372695,33.9521277 L154.372695,37.7875887 L154.66773,37.7875887 L154.66773,39.8528369 C154.372695,41.0329787 154.07766,42.2131206 153.782624,43.6882979 C152.307447,43.6882979 149.947163,43.6882979 148.767021,43.3932624 L147.291844,43.3932624 L147.291844,43.6882979 C146.406738,43.6882979 145.816667,43.3932624 144.93156,43.3932624 L144.93156,43.098227 L144.341489,43.098227 L144.341489,42.8031915 C143.751418,42.8031915 143.456383,42.508156 142.866312,42.508156 L142.866312,42.2131206 C142.571277,41.9180851 142.866312,42.2131206 142.571277,41.6230496 C143.161348,41.3280142 143.456383,40.7379433 143.456383,39.8528369 C141.391135,38.9677305 139.325887,38.9677305 136.375532,38.9677305 L135.785461,37.7875887 C136.080496,37.1975177 135.785461,36.3124113 135.785461,35.1322695 C135.785461,33.6570922 135.785461,31.591844 135.490426,30.1166667 C134.900355,30.1166667 134.605319,29.8216312 133.720213,29.8216312 C133.720213,32.4769504 134.015248,35.427305 134.015248,38.0826241 C134.015248,39.5578014 134.310284,41.0329787 133.130142,41.6230496 L133.130142,41.9180851 L132.245035,41.9180851 L132.245035,42.2131206 C132.245035,42.8031915 131.95,42.8031915 131.359929,42.8031915 C131.064894,42.2131206 129.884752,42.2131206 128.999645,41.9180851 C128.999645,38.672695 128.70461,35.427305 128.70461,32.4769504 C128.70461,31.001773 128.999645,29.5265957 128.999645,28.0514184 L128.70461,28.0514184 L128.70461,25.6911348 C128.70461,23.920922 128.114539,20.085461 128.999645,18.9053191 C129.589716,18.3152482 131.359929,18.6102837 132.245035,18.6102837 C132.835106,19.2003546 134.310284,18.9053191 135.19539,18.6102837 C135.19539,17.7251773 134.605319,16.25 134.310284,15.9549645 L133.425177,15.9549645 L133.425177,16.25 L131.95,16.25 L131.95,16.5450355 L128.999645,16.5450355 L128.999645,16.8400709 C128.114539,16.8400709 126.934397,17.1351064 126.049291,17.1351064 C125.754255,16.5450355 125.754255,16.5450355 125.45922,16.25 L125.164184,16.25 L125.164184,14.7748227 L124.869149,14.7748227 C124.869149,14.4797872 124.574113,13.8897163 124.574113,13.5946809 C124.279078,13.2996454 123.984043,13.2996454 123.689007,13.2996454 L123.689007,12.414539 L123.393972,12.414539 C123.393972,11.2343972 123.689007,10.3492908 123.689007,9.16914894 C123.984043,9.16914894 123.984043,8.87411348 124.869149,8.87411348 C125.45922,10.0542553 126.049291,9.16914894 127.524468,9.75921986 L127.524468,10.0542553 L131.95,10.0542553 C134.015248,10.6443262 136.375532,10.0542553 139.030851,10.0542553 C139.325887,9.4641844 139.325887,9.75921986 139.620922,9.16914894 C138.735816,8.57907801 138.145745,7.69397163 137.260638,7.10390071 L137.260638,5.6287234 L136.965603,5.6287234 C136.965603,5.03865248 136.670567,4.44858156 136.670567,3.85851064 C136.965603,3.85851064 137.260638,3.56347518 137.555674,3.56347518 L137.555674,3.26843972 C137.850709,3.26843972 137.850709,3.56347518 138.145745,3.56347518 C139.030851,3.26843972 139.620922,3.85851064 140.801064,3.56347518 L140.801064,3.26843972 L141.68617,3.26843972 L141.68617,2.97340426 C141.981206,2.97340426 141.68617,3.26843972 141.981206,3.26843972 L142.276241,3.26843972 L142.276241,2.97340426 L142.571277,2.97340426 L142.571277,3.26843972 L144.046454,3.26843972 L144.046454,3.56347518 L144.636525,3.56347518 L144.636525,3.85851064 C145.226596,4.1535461 145.521631,4.1535461 146.111702,4.44858156 C145.521631,5.03865248 145.226596,5.33368794 144.93156,6.21879433 Z M183.28617,3.26843972 C183.581206,3.26843972 184.171277,3.56347518 184.466312,3.56347518 C184.761348,3.85851064 184.761348,4.1535461 185.056383,4.44858156 L185.351418,4.44858156 C185.351418,4.74361702 185.646454,5.03865248 185.646454,5.33368794 C185.941489,5.6287234 186.236525,5.92375887 186.826596,6.21879433 C186.826596,6.51382979 187.121631,6.80886525 187.121631,7.10390071 C187.416667,7.39893617 187.711702,7.39893617 188.301773,7.69397163 L188.301773,8.28404255 L188.596809,8.28404255 C189.186879,10.0542553 187.416667,11.5294326 190.071986,11.5294326 C190.367021,11.8244681 190.071986,11.5294326 190.662057,11.8244681 C190.662057,11.5294326 191.547163,10.9393617 191.547163,10.9393617 L191.547163,7.10390071 L192.727305,7.10390071 L192.727305,7.69397163 C193.612411,7.69397163 193.907447,7.98900709 194.497518,8.57907801 C194.497518,8.87411348 194.792553,8.87411348 194.792553,9.16914894 L196.26773,9.16914894 L196.26773,9.4641844 C196.562766,9.4641844 196.857801,9.16914894 197.447872,9.16914894 C197.447872,9.16914894 197.447872,9.4641844 198.037943,9.4641844 C198.037943,9.4641844 198.037943,9.16914894 198.628014,9.16914894 C198.628014,9.16914894 198.628014,9.4641844 199.218085,9.4641844 L199.218085,9.16914894 L199.513121,9.16914894 L199.513121,9.4641844 L202.463475,9.4641844 L202.463475,9.16914894 L203.053546,9.16914894 L203.053546,8.87411348 L203.938652,8.87411348 C204.528723,8.57907801 204.528723,8.28404255 205.708865,7.98900709 L205.708865,8.57907801 L206.298936,8.57907801 L206.298936,9.4641844 L206.889007,9.4641844 C206.889007,10.9393617 207.184043,12.1195035 207.184043,13.5946809 L206.889007,13.5946809 L206.889007,14.1847518 L206.593972,14.1847518 L206.593972,15.3648936 L206.298936,15.3648936 L206.298936,16.8400709 L206.003901,16.8400709 L206.003901,18.3152482 L205.708865,18.3152482 L205.708865,24.8060284 L205.41383,24.8060284 C205.41383,25.6911348 205.118794,26.2812057 205.118794,27.1663121 C205.708865,27.1663121 206.003901,26.8712766 206.593972,26.8712766 C206.889007,25.9861702 206.889007,25.3960993 208.069149,25.3960993 C208.364184,25.9861702 208.364184,25.6911348 208.954255,25.9861702 L208.954255,30.1166667 C208.954255,30.1166667 209.249291,30.1166667 209.249291,30.7067376 L208.954255,30.7067376 L208.954255,31.001773 L208.364184,31.001773 C208.069149,31.2968085 208.069149,31.591844 207.774113,31.8868794 C207.184043,32.1819149 203.348582,31.8868794 203.053546,31.8868794 C203.053546,32.1819149 202.758511,32.4769504 202.758511,33.0670213 C203.348582,33.3620567 203.938652,33.9521277 204.528723,33.9521277 C205.41383,34.2471631 206.298936,34.2471631 207.184043,34.5421986 L207.184043,34.837234 L207.774113,34.837234 L207.774113,35.1322695 C208.65922,35.427305 209.839362,35.427305 210.724468,35.7223404 C210.429433,36.6074468 210.134397,37.1975177 209.839362,38.0826241 L209.839362,38.9677305 L208.954255,39.8528369 L208.954255,40.4429078 C208.069149,41.3280142 207.184043,42.2131206 206.003901,43.098227 C204.528723,42.8031915 203.938652,41.6230496 202.758511,41.3280142 L202.758511,40.7379433 C202.16844,40.4429078 202.16844,39.8528369 201.873404,39.5578014 C201.578369,39.5578014 201.578369,39.262766 201.283333,39.262766 C200.693262,38.3776596 201.283333,37.7875887 199.808156,37.7875887 C199.218085,38.9677305 198.92305,38.672695 198.037943,39.5578014 L198.037943,39.8528369 C197.742908,39.8528369 197.742908,40.1478723 197.447872,40.1478723 L197.447872,40.7379433 C197.152837,41.0329787 196.562766,41.3280142 196.26773,41.9180851 C196.26773,42.2131206 195.972695,42.2131206 195.972695,42.508156 L195.087589,42.508156 L195.087589,42.8031915 L194.497518,42.8031915 L194.497518,43.098227 L193.612411,43.098227 L193.612411,43.3932624 L192.727305,43.3932624 L192.727305,43.6882979 L192.137234,43.6882979 L192.137234,43.9833333 L190.957092,43.9833333 L190.957092,44.2783688 L190.367021,44.2783688 L190.367021,44.5734043 L188.891844,44.5734043 C188.596809,43.3932624 188.301773,42.2131206 188.006738,41.3280142 C187.711702,41.0329787 187.121631,40.7379433 186.826596,40.4429078 C185.941489,40.7379433 185.646454,41.0329787 185.056383,41.6230496 L185.056383,41.9180851 C184.761348,41.9180851 184.171277,42.2131206 183.876241,42.2131206 L183.876241,42.508156 L183.28617,42.508156 C183.28617,42.8031915 182.991135,42.8031915 182.991135,43.098227 L182.401064,43.098227 L182.401064,43.3932624 L181.810993,43.3932624 C181.810993,43.6882979 181.515957,43.6882979 181.515957,43.9833333 L180.925887,43.9833333 L180.925887,44.2783688 C180.335816,43.9833333 180.630851,44.2783688 180.335816,43.9833333 C180.04078,43.6882979 179.745745,43.3932624 179.155674,43.098227 L179.155674,42.508156 C178.565603,41.9180851 178.270567,41.9180851 177.975532,41.0329787 C177.385461,40.7379433 177.385461,41.0329787 177.090426,40.1478723 L176.79539,40.1478723 L176.79539,39.262766 L176.500355,39.262766 L176.500355,38.672695 L176.205319,38.672695 C176.205319,38.0826241 175.910284,37.4925532 175.910284,37.1975177 C177.680496,37.7875887 180.925887,36.9024823 181.515957,36.0173759 L181.810993,36.0173759 C181.810993,35.7223404 182.106028,35.1322695 182.106028,34.837234 L181.810993,34.837234 C181.515957,33.9521277 181.515957,33.9521277 180.630851,33.9521277 C180.04078,34.837234 179.450709,35.7223404 177.975532,35.7223404 C177.680496,33.9521277 177.680496,32.4769504 177.385461,30.7067376 L181.515957,30.7067376 C181.810993,30.1166667 181.810993,29.5265957 181.810993,28.6414894 C180.925887,28.6414894 179.745745,28.9365248 178.860638,28.9365248 C178.565603,28.3464539 178.270567,27.756383 177.680496,27.4613475 L177.385461,27.756383 C176.500355,28.3464539 176.500355,29.5265957 176.205319,30.4117021 L175.910284,30.4117021 L175.910284,31.001773 C175.615248,31.2968085 175.320213,31.2968085 175.025177,31.591844 L175.025177,32.4769504 C174.435106,32.4769504 174.140071,32.4769504 173.845035,32.1819149 L173.845035,31.8868794 C173.55,31.8868794 173.254965,31.591844 172.959929,31.591844 C172.959929,31.2968085 172.664894,31.001773 172.664894,30.7067376 L171.484752,30.7067376 L170.894681,30.4117021 L170.894681,27.756383 C172.074823,27.4613475 174.140071,26.8712766 175.025177,26.2812057 C175.025177,25.9861702 175.320213,25.6911348 175.320213,25.3960993 C175.615248,25.3960993 175.615248,25.1010638 175.910284,25.1010638 C175.910284,24.8060284 176.205319,24.5109929 176.205319,24.2159574 L176.79539,23.6258865 L176.79539,23.0358156 C177.090426,23.0358156 177.090426,22.7407801 177.385461,22.7407801 C177.680496,22.1507092 177.680496,21.8556738 177.975532,21.2656028 L178.270567,21.2656028 L178.270567,20.6755319 L178.565603,20.6755319 L178.565603,20.085461 L178.860638,20.085461 L178.860638,19.4953901 L179.155674,19.4953901 L179.155674,18.9053191 L179.450709,18.9053191 L179.450709,18.3152482 L179.745745,18.3152482 L179.745745,17.7251773 L180.04078,17.7251773 L180.04078,17.1351064 L180.335816,17.1351064 C180.925887,14.7748227 181.220922,12.414539 181.810993,10.0542553 C182.696099,7.39893617 183.28617,5.92375887 183.28617,3.26843972 Z M238.162766,16.5450355 C237.27766,16.5450355 236.982624,16.5450355 236.392553,16.8400709 C236.097518,17.4301418 236.097518,18.0202128 236.097518,18.9053191 C237.27766,19.4953901 238.162766,19.7904255 238.457801,20.9705674 L239.047872,20.9705674 C239.342908,21.8556738 239.342908,21.5606383 240.228014,21.8556738 L240.228014,21.5606383 L240.52305,21.5606383 L240.52305,19.7904255 L240.818085,19.7904255 L240.818085,19.4953901 L241.998227,19.4953901 C242.588298,20.085461 244.948582,19.4953901 246.128723,19.4953901 C249.669149,19.2003546 252.914539,19.2003546 256.454965,18.9053191 C257.045035,18.9053191 257.340071,18.6102837 257.930142,18.6102837 L257.930142,18.3152482 L258.520213,18.3152482 C258.815248,18.3152482 258.520213,17.7251773 259.405319,17.7251773 L259.405319,18.0202128 L259.99539,18.0202128 L259.99539,19.2003546 L259.700355,19.2003546 C259.700355,19.4953901 259.99539,19.7904255 259.99539,20.085461 L259.99539,23.3308511 L259.700355,23.3308511 C259.700355,23.920922 259.99539,24.2159574 259.99539,24.8060284 L258.225177,24.8060284 L258.225177,25.1010638 C257.340071,25.3960993 256.159929,25.1010638 255.569858,24.8060284 C254.684752,24.8060284 253.50461,25.1010638 252.619504,25.1010638 C252.324468,25.6911348 252.029433,25.9861702 252.029433,27.1663121 C252.914539,28.0514184 251.734397,29.5265957 252.029433,30.7067376 C252.324468,31.8868794 252.029433,34.2471631 252.324468,35.7223404 C252.914539,37.7875887 252.619504,41.0329787 252.619504,43.3932624 C249.374113,43.9833333 246.423759,43.3932624 243.473404,43.098227 C242.883333,42.2131206 242.293262,42.2131206 241.998227,41.3280142 L241.703191,41.3280142 L241.703191,40.1478723 C241.998227,39.8528369 241.703191,40.1478723 241.998227,39.5578014 C242.883333,39.8528369 243.473404,39.8528369 244.358511,40.1478723 C244.948582,39.5578014 245.243617,38.9677305 245.833688,38.3776596 L246.128723,38.3776596 L246.128723,35.7223404 C246.423759,35.427305 247.01383,33.3620567 246.718794,32.4769504 C246.423759,31.001773 246.718794,27.756383 246.423759,25.6911348 C245.833688,25.3960993 244.948582,25.3960993 244.063475,25.3960993 C243.473404,25.9861702 240.52305,25.3960993 239.637943,25.3960993 C239.637943,24.8060284 239.932979,24.5109929 239.932979,23.920922 C239.637943,23.6258865 239.047872,23.6258865 238.457801,23.6258865 L238.457801,24.2159574 L237.86773,24.2159574 C237.572695,24.8060284 237.27766,24.8060284 236.982624,25.3960993 L236.687589,25.3960993 C236.097518,26.5762411 237.27766,28.3464539 237.27766,29.2315603 L236.982624,29.2315603 C236.982624,29.8216312 237.27766,30.4117021 237.27766,30.7067376 L236.982624,30.7067376 C236.982624,32.7719858 236.687589,34.5421986 236.687589,36.6074468 L236.687589,40.7379433 L236.392553,40.7379433 C236.097518,41.3280142 236.097518,41.9180851 235.802482,42.2131206 C235.212411,42.508156 234.917376,42.508156 234.62234,43.098227 L234.62234,43.3932624 L232.262057,43.3932624 C231.671986,42.8031915 231.671986,43.098227 231.081915,42.8031915 L231.081915,42.508156 L230.491844,42.508156 C230.491844,42.2131206 230.196809,42.2131206 230.196809,41.9180851 C229.606738,41.9180851 229.016667,41.6230496 228.426596,41.6230496 L228.426596,41.3280142 C228.13156,41.0329787 228.426596,41.3280142 228.13156,40.7379433 L228.721631,40.7379433 C229.311702,39.5578014 230.196809,39.8528369 230.196809,37.7875887 L230.491844,37.7875887 L230.491844,36.9024823 L230.786879,36.9024823 L230.786879,34.5421986 C230.786879,32.4769504 231.081915,30.4117021 230.786879,29.2315603 C230.196809,28.9365248 230.491844,28.9365248 229.901773,28.6414894 C229.606738,29.2315603 229.606738,28.9365248 229.016667,29.2315603 C229.016667,29.5265957 228.721631,29.5265957 228.721631,29.8216312 L228.426596,29.8216312 L228.426596,30.4117021 C228.13156,30.4117021 228.13156,30.7067376 227.836525,30.7067376 C227.246454,31.2968085 227.246454,31.591844 226.066312,31.8868794 C225.476241,31.2968085 225.476241,31.591844 224.591135,31.2968085 L224.591135,31.001773 L224.001064,31.001773 L224.001064,30.7067376 C223.706028,30.7067376 223.410993,30.4117021 223.115957,30.4117021 C222.820922,29.5265957 222.525887,29.5265957 222.230851,28.3464539 C222.525887,28.3464539 222.820922,27.756383 222.820922,27.756383 C223.706028,27.4613475 224.296099,27.1663121 225.181206,26.8712766 L225.181206,26.5762411 L226.066312,26.5762411 C226.361348,26.2812057 226.361348,25.9861702 226.656383,25.6911348 C228.426596,24.5109929 231.081915,23.0358156 231.37695,20.085461 C230.786879,19.4953901 231.081915,19.2003546 229.901773,19.2003546 C229.311702,20.3804965 228.13156,21.2656028 226.656383,21.2656028 C226.361348,20.9705674 226.066312,20.9705674 225.771277,20.6755319 C225.181206,19.4953901 224.88617,18.3152482 224.591135,16.5450355 C225.181206,16.25 225.771277,15.6599291 226.066312,15.6599291 L226.951418,15.6599291 C227.246454,15.3648936 227.246454,15.0698582 227.541489,14.7748227 L228.721631,14.7748227 L228.721631,14.4797872 L229.311702,14.4797872 C230.491844,13.5946809 231.37695,12.7095745 232.262057,11.5294326 L232.262057,10.9393617 C232.557092,10.6443262 232.852128,10.6443262 233.147163,10.3492908 L233.147163,9.75921986 L233.442199,9.75921986 C233.442199,9.4641844 233.737234,9.16914894 233.737234,8.57907801 L234.03227,8.57907801 C234.03227,7.98900709 234.327305,7.69397163 234.327305,7.10390071 C234.62234,7.10390071 234.62234,6.80886525 234.917376,6.80886525 L234.917376,6.21879433 C235.212411,6.21879433 235.212411,5.92375887 235.507447,5.92375887 L235.507447,5.33368794 C235.802482,5.33368794 235.802482,5.03865248 236.097518,5.03865248 C236.687589,4.44858156 235.802482,4.44858156 236.982624,4.1535461 L236.982624,3.85851064 C237.27766,3.85851064 237.86773,3.56347518 238.162766,3.56347518 C238.457801,4.1535461 239.047872,4.1535461 239.342908,5.03865248 L239.637943,5.03865248 L239.637943,5.92375887 L239.932979,5.92375887 L239.047872,8.57907801 L239.047872,8.87411348 L239.342908,8.87411348 C239.342908,10.3492908 239.637943,11.8244681 239.637943,13.5946809 L239.342908,13.5946809 C238.457801,15.3648936 238.457801,15.9549645 238.162766,16.5450355 Z M256.454965,16.25 C254.389716,16.25 252.619504,15.9549645 250.554255,15.9549645 L250.554255,16.25 L245.538652,16.25 L245.538652,16.5450355 C245.243617,16.5450355 244.948582,16.25 244.653546,16.25 L244.653546,16.5450355 C243.178369,16.8400709 241.703191,16.5450355 240.52305,16.8400709 L240.52305,15.0698582 C239.932979,14.4797872 240.52305,12.7095745 240.228014,11.8244681 C239.932979,11.2343972 239.637943,10.6443262 239.637943,9.75921986 C241.408156,9.75921986 242.883333,10.0542553 244.653546,10.0542553 C245.243617,10.0542553 246.423759,9.4641844 247.308865,9.75921986 L247.308865,10.0542553 L248.784043,10.0542553 L248.784043,10.3492908 C249.079078,10.3492908 249.669149,10.0542553 249.964184,10.0542553 C249.964184,10.0542553 249.964184,10.3492908 250.554255,10.3492908 L250.554255,10.0542553 C251.144326,10.0542553 252.029433,9.75921986 252.619504,9.75921986 C253.799645,9.16914894 254.684752,8.28404255 256.454965,7.98900709 C257.045035,8.87411348 257.340071,7.98900709 257.340071,9.75921986 C257.045035,10.0542553 256.75,12.1195035 256.75,12.7095745 L257.045035,12.7095745 L257.045035,14.7748227 C256.75,14.7748227 256.75,15.0698582 256.454965,15.0698582 C256.75,15.3648936 256.75,15.9549645 256.454965,16.25 Z M187.416667,16.25 C187.711702,15.3648936 188.006738,15.3648936 188.301773,13.8897163 C188.006738,13.8897163 187.711702,13.5946809 187.416667,13.5946809 C187.121631,13.2996454 187.121631,13.0046099 186.826596,12.7095745 L185.941489,12.7095745 C185.351418,13.5946809 185.056383,13.5946809 184.761348,15.3648936 C185.056383,15.3648936 185.351418,15.6599291 185.646454,15.6599291 L185.646454,15.9549645 C186.53156,15.9549645 186.826596,15.9549645 187.416667,16.25 Z M90.0549645,13.5946809 C89.4648936,15.0698582 88.8748227,18.0202128 87.6946809,18.9053191 L87.6946809,19.2003546 C86.514539,19.7904255 86.514539,18.3152482 85.9244681,20.085461 L85.6294326,20.085461 L85.6294326,20.3804965 L85.9244681,20.3804965 C86.2195035,20.6755319 86.514539,20.9705674 86.8095745,21.5606383 L87.3996454,21.5606383 L87.9897163,22.1507092 L87.9897163,22.7407801 L88.2847518,22.7407801 C88.2847518,23.0358156 88.5797872,23.0358156 88.5797872,23.3308511 L89.4648936,23.3308511 C89.4648936,23.0358156 90.0549645,22.7407801 90.0549645,22.7407801 L90.0549645,21.8556738 L90.35,21.8556738 C90.35,21.2656028 90.6450355,20.9705674 90.6450355,20.3804965 C90.9400709,20.3804965 90.9400709,20.085461 91.2351064,20.085461 L91.2351064,19.4953901 C91.5301418,19.4953901 91.5301418,19.2003546 91.8251773,19.2003546 L91.8251773,18.6102837 C92.1202128,18.6102837 92.1202128,18.3152482 92.4152482,18.3152482 L92.4152482,17.7251773 C92.7102837,16.8400709 93.3003546,16.5450355 93.5953901,15.3648936 C93.3003546,15.0698582 93.0053191,14.4797872 92.7102837,14.1847518 C91.2351064,13.8897163 90.6450355,13.5946809 90.0549645,13.5946809 Z M101.266312,13.8897163 C100.971277,14.1847518 99.4960993,14.1847518 98.6109929,14.1847518 C98.6109929,14.4797872 98.3159574,14.7748227 98.3159574,15.0698582 C97.7258865,15.6599291 98.020922,17.4301418 97.7258865,18.0202128 L97.4308511,18.0202128 L97.4308511,18.6102837 C97.1358156,18.6102837 97.1358156,18.9053191 96.8407801,18.9053191 C96.2507092,19.4953901 96.2507092,20.085461 95.9556738,21.2656028 C96.2507092,21.5606383 96.8407801,22.7407801 97.7258865,22.1507092 L97.7258865,21.8556738 L98.3159574,21.8556738 C98.6109929,21.5606383 98.6109929,21.2656028 98.9060284,20.9705674 L99.2010638,20.9705674 L99.2010638,20.3804965 C99.4960993,20.085461 99.7911348,20.085461 100.08617,19.7904255 C100.381206,19.2003546 100.381206,18.6102837 100.676241,18.0202128 C101.266312,16.8400709 102.446454,15.9549645 102.446454,14.1847518 C101.856383,13.8897163 101.856383,13.8897163 101.266312,13.8897163 Z M199.808156,14.1847518 C199.808156,14.4797872 199.808156,14.4797872 199.808156,14.1847518 C199.513121,14.4797872 198.92305,14.4797872 198.628014,14.4797872 C198.037943,14.4797872 196.562766,14.7748227 196.26773,15.3648936 C195.972695,15.6599291 195.972695,15.9549645 195.67766,16.5450355 C196.26773,16.8400709 197.152837,16.8400709 198.332979,16.8400709 L198.332979,17.1351064 L199.513121,17.1351064 C200.103191,16.25 200.988298,16.25 200.988298,14.7748227 C200.693262,14.4797872 200.693262,14.4797872 199.808156,14.1847518 Z M141.096099,15.3648936 C140.801064,15.6599291 140.506028,15.6599291 140.210993,15.6599291 C139.620922,16.5450355 139.325887,16.25 139.030851,17.7251773 C139.915957,18.6102837 139.915957,19.4953901 141.981206,19.4953901 C142.276241,19.2003546 142.866312,18.9053191 142.866312,18.6102837 L142.866312,17.4301418 L143.161348,17.4301418 C143.161348,16.8400709 143.456383,16.25 143.456383,15.6599291 C142.571277,15.6599291 141.981206,15.3648936 141.096099,15.3648936 Z M189.186879,19.7904255 C188.006738,19.4953901 187.711702,19.4953901 186.53156,19.7904255 C186.236525,20.085461 186.236525,20.3804965 186.236525,20.9705674 C186.53156,20.9705674 186.826596,21.5606383 186.826596,21.5606383 C188.006738,22.1507092 188.891844,21.2656028 189.77695,22.4457447 C190.957092,23.6258865 190.071986,25.6911348 189.77695,26.8712766 L189.77695,29.8216312 L190.071986,29.8216312 C190.071986,30.7067376 189.77695,31.591844 189.77695,32.7719858 L189.77695,35.427305 L189.481915,35.427305 L189.481915,36.0173759 C189.186879,36.3124113 188.891844,36.3124113 188.596809,36.6074468 C188.301773,37.1975177 188.891844,38.0826241 188.891844,38.3776596 C189.481915,38.672695 189.77695,38.672695 190.367021,38.672695 C190.367021,38.3776596 190.957092,38.0826241 190.957092,38.0826241 C191.252128,37.1975177 191.252128,36.3124113 191.547163,35.427305 L191.842199,35.427305 L191.842199,34.837234 L192.137234,34.837234 C192.137234,33.9521277 191.842199,33.0670213 191.842199,32.1819149 L192.137234,32.1819149 C192.43227,30.7067376 192.137234,28.3464539 191.842199,27.1663121 L191.842199,22.4457447 L191.547163,22.4457447 C191.547163,20.6755319 191.252128,18.6102837 191.252128,16.8400709 C190.662057,16.8400709 190.662057,16.8400709 190.367021,17.1351064 C189.77695,17.7251773 189.481915,18.3152482 189.186879,19.7904255 Z M182.401064,19.4953901 C182.106028,20.085461 181.810993,20.3804965 181.515957,20.9705674 L182.696099,20.9705674 C182.991135,20.6755319 182.991135,20.3804965 182.991135,19.7904255 C182.696099,19.4953901 182.696099,19.4953901 182.401064,19.4953901 Z M200.693262,23.0358156 C200.693262,22.4457447 200.988298,22.1507092 200.988298,21.5606383 C200.103191,20.9705674 200.103191,20.6755319 198.92305,20.6755319 C198.332979,21.2656028 197.742908,21.2656028 196.562766,21.2656028 C196.26773,21.8556738 195.972695,21.8556738 195.67766,22.7407801 C195.972695,23.0358156 196.26773,23.3308511 196.562766,23.920922 C197.152837,23.920922 197.152837,23.6258865 197.152837,23.6258865 L199.513121,23.6258865 L199.513121,23.3308511 C199.808156,23.3308511 200.103191,23.0358156 200.693262,23.0358156 Z M98.9060284,26.2812057 L98.9060284,25.1010638 L98.3159574,24.5109929 C98.020922,24.5109929 97.7258865,24.2159574 97.4308511,24.2159574 C96.5457447,23.6258865 95.9556738,22.7407801 95.6606383,21.8556738 L95.0705674,21.8556738 C94.185461,23.3308511 93.3003546,23.920922 93.0053191,25.9861702 L93.3003546,26.2812057 C95.0705674,26.8712766 96.8407801,26.8712766 98.9060284,26.2812057 Z M145.521631,26.2812057 C146.406738,26.5762411 146.406738,26.8712766 147.586879,27.1663121 C148.17695,26.2812057 148.767021,25.9861702 148.767021,24.2159574 C148.471986,23.920922 147.881915,23.920922 147.291844,23.920922 L147.291844,23.6258865 C146.996809,23.3308511 145.816667,23.920922 145.521631,23.920922 C145.226596,24.5109929 145.226596,24.8060284 145.226596,25.6911348 C145.521631,26.2812057 145.226596,25.9861702 145.521631,26.2812057 Z M134.015248,24.5109929 C133.720213,25.6911348 133.425177,26.5762411 133.425177,27.756383 C133.720213,28.0514184 134.310284,28.0514184 134.900355,28.0514184 L134.900355,27.756383 L135.490426,27.756383 L135.490426,27.4613475 L136.080496,27.4613475 L136.080496,27.1663121 C136.965603,26.5762411 136.965603,26.5762411 136.965603,24.8060284 C136.375532,24.2159574 136.670567,23.920922 135.490426,23.6258865 L135.490426,23.920922 C134.605319,24.5109929 134.310284,24.5109929 134.015248,24.5109929 Z M140.210993,29.5265957 L143.161348,29.5265957 C143.456383,29.2315603 143.456383,29.2315603 143.456383,28.3464539 C142.571277,27.4613475 143.161348,25.3960993 142.571277,24.2159574 C141.096099,23.920922 139.915957,23.6258865 139.915957,25.6911348 C139.915957,25.9861702 140.506028,27.4613475 140.506028,28.0514184 L140.210993,28.0514184 C140.210993,28.6414894 140.506028,28.9365248 140.210993,29.5265957 Z M188.301773,28.3464539 L188.301773,27.756383 C188.596809,27.756383 188.596809,27.4613475 188.891844,27.4613475 L188.891844,26.5762411 C188.301773,26.2812057 188.006738,26.2812057 187.121631,26.2812057 C186.826596,26.8712766 186.53156,27.1663121 186.236525,28.0514184 C186.53156,28.0514184 186.826596,28.3464539 187.121631,28.3464539 L187.121631,28.6414894 C187.416667,28.6414894 187.711702,28.6414894 188.301773,28.3464539 Z M203.643617,27.4613475 C203.348582,27.4613475 202.758511,27.1663121 202.463475,27.1663121 L202.463475,26.8712766 C201.873404,26.5762411 198.037943,27.4613475 197.742908,27.756383 L197.447872,27.756383 L197.447872,28.6414894 L197.742908,28.6414894 C197.742908,28.9365248 198.037943,29.2315603 198.037943,29.8216312 C198.332979,29.8216312 198.332979,30.1166667 198.628014,30.1166667 C198.628014,30.4117021 198.92305,30.7067376 198.92305,31.001773 L199.808156,31.001773 C200.693262,29.2315603 203.348582,28.9365248 203.643617,27.4613475 Z M146.406738,39.262766 L146.996809,39.262766 L146.996809,39.5578014 L147.291844,39.5578014 L147.291844,39.262766 L148.17695,39.262766 L148.17695,38.9677305 C148.767021,38.3776596 148.471986,37.1975177 148.471986,36.0173759 C148.471986,34.2471631 149.357092,30.1166667 148.471986,29.2315603 L148.471986,28.9365248 L147.586879,28.9365248 C147.291844,29.2315603 146.996809,29.8216312 146.701773,30.1166667 C146.406738,33.3620567 146.406738,36.3124113 146.406738,39.262766 Z M195.382624,35.1322695 L195.972695,35.1322695 L195.972695,35.427305 C196.26773,35.427305 196.857801,35.1322695 197.152837,34.837234 C197.447872,33.9521277 198.037943,33.6570922 198.332979,32.4769504 C197.447872,31.8868794 197.152837,30.7067376 196.562766,29.5265957 C195.087589,29.8216312 195.382624,31.001773 195.382624,32.4769504 C194.792553,33.3620567 195.382624,34.5421986 195.382624,35.1322695 Z M186.53156,31.8868794 C186.236525,32.4769504 185.941489,32.1819149 185.941489,33.3620567 C186.826596,33.9521277 186.826596,34.2471631 188.301773,34.2471631 C188.596809,34.2471631 188.301773,34.5421986 188.891844,34.5421986 L188.891844,34.2471631 C189.77695,33.9521277 189.481915,33.9521277 189.77695,33.3620567 C189.481915,33.0670213 189.186879,33.0670213 188.891844,32.7719858 C188.891844,32.4769504 188.596809,32.1819149 188.596809,31.8868794 L186.53156,31.8868794 Z M94.7755319,37.4925532 L97.1358156,37.4925532 L97.1358156,37.1975177 C97.7258865,37.1975177 97.4308511,37.4925532 97.7258865,37.4925532 L98.020922,37.4925532 L98.020922,37.1975177 C99.2010638,37.1975177 100.381206,37.4925532 101.266312,37.4925532 C101.561348,36.9024823 101.561348,36.3124113 101.561348,35.427305 C101.561348,35.1322695 101.856383,33.9521277 101.856383,32.7719858 C101.561348,32.7719858 101.266312,32.4769504 100.971277,32.4769504 C100.381206,31.8868794 96.2507092,32.1819149 95.0705674,32.1819149 C94.4804965,33.0670213 94.4804965,32.7719858 94.4804965,34.2471631 C93.8904255,34.837234 94.4804965,36.6074468 94.7755319,37.4925532 Z M139.620922,36.3124113 L142.276241,37.1975177 C142.866312,36.3124113 143.456383,36.0173759 143.751418,35.1322695 L143.456383,35.1322695 L143.456383,33.0670213 C142.276241,32.7719858 141.391135,33.0670213 139.915957,33.0670213 C139.620922,33.6570922 139.620922,35.1322695 139.620922,36.3124113 Z" id="Shape" fill="#231815"></path>
                    <path d="M48.1599291,25.3960993 L61.1414894,25.3960993 C61.1414894,24.8060284 60.8464539,24.5109929 60.8464539,23.920922 L47.5698582,23.920922 L48.1599291,25.3960993 Z" id="Shape" fill="#E50012"></path>
                    <path d="M55.2407801,43.6882979 L48.75,52.8343972 L12.4606383,52.8343972 L5.96985816,43.3932624 L22.1968085,3.56347518 L30.7528369,24.8060284 L39.8989362,3.56347518 L47.2748227,22.1507092 L60.8464539,22.1507092 C57.0109929,9.4641844 45.2095745,0.0230496454 31.3429078,0.0230496454 C13.9358156,0.318085106 0.0691489362,13.8897163 0.0691489362,31.001773 C0.0691489362,48.1138298 13.9358156,61.685461 30.7528369,61.685461 C44.0294326,61.685461 55.5358156,53.1294326 59.6663121,41.3280142 L54.3556738,41.3280142 L55.2407801,43.6882979 Z" id="Shape" fill="#E50012"></path>
                    <path d="M28.0975177,43.098227 L19.2464539,22.1507092 L10.6904255,43.3932624 L44.914539,43.6882979 L36.3585106,22.1507092 L28.0975177,43.098227 Z M49.0450355,28.3464539 L61.4365248,28.3464539 C61.4365248,27.756383 61.4365248,27.4613475 61.1414894,26.8712766 L48.4549645,26.8712766 L49.0450355,28.3464539 Z M51.4053191,34.2471631 L61.4365248,34.2471631 L61.4365248,32.7719858 L50.8152482,32.7719858 L51.4053191,34.2471631 Z M61.4365248,29.8216312 L49.6351064,29.8216312 L50.2251773,31.2968085 L61.4365248,31.2968085 L61.4365248,31.001773 L61.4365248,29.8216312 Z M53.7656028,39.8528369 L60.256383,39.8528369 C60.256383,39.262766 60.5514184,38.9677305 60.5514184,38.3776596 L53.1755319,38.3776596 L53.7656028,39.8528369 Z M52.585461,36.9024823 L60.8464539,36.9024823 C60.8464539,36.3124113 61.1414894,36.0173759 61.1414894,35.427305 L51.9953901,35.427305 L52.585461,36.9024823 Z" id="Shape" fill="#E50012"></path>
                </g>
            </g>
        </g>
    </g>
</svg>