<?xml version="1.0" encoding="UTF-8"?>
<svg width="20px" height="16px" viewBox="0 0 20 16" version="1.1" xmlns="http://www.w3.org/2000/svg" xmlns:xlink="http://www.w3.org/1999/xlink">
    <!-- Generator: Sketch 51 (57462) - http://www.bohemiancoding.com/sketch -->
    <title>短信码</title>
    <desc>Created with Sketch.</desc>
    <defs></defs>
    <g id="CCM视觉设计稿" stroke="none" stroke-width="1" fill="none" fill-rule="evenodd">
        <g id="登录页" transform="translate(-1177.000000, -528.000000)">
            <rect fill="#FFFFFF" x="0" y="0" width="1920" height="1080"></rect>
            <g id="Group-2" transform="translate(1177.000000, 330.000000)" fill="#6E6F70" fill-rule="nonzero">
                <g id="Group" transform="translate(0.000000, 198.000000)">
                    <g id="短信码">
                        <path d="M19.9866489,4.52287582 L19.9839786,1.05098039 C19.9839786,0.483660131 19.5140187,0.0209150327 18.9319092,0.0209150327 L1.05740988,0.0209150327 C0.475300401,0.0209150327 0.00534045394,0.481045752 0.00534045394,1.05098039 L0.00534045394,4.52287582 L0.00267022697,4.5254902 L0.00534045394,4.5254902 L0.00534045394,14.951634 C0.00534045394,15.5215686 0.475300401,15.9816993 1.05740988,15.9816993 L18.9345794,15.9816993 C19.5166889,15.9816993 19.9866489,15.5215686 19.9866489,14.951634 L19.9866489,4.52287582 Z M18.4085447,1.56601307 L18.4085447,3.65490196 L9.99465955,8.63006536 L1.58344459,3.65490196 L1.58344459,1.56601307 L18.4085447,1.56601307 Z M18.4085447,14.4366013 L1.58344459,14.4366013 L1.58344459,5.45882353 L9.34045394,10.0470588 L9.99732977,9.40130719 L10.6542056,10.0470588 L18.411215,5.45882353 L18.411215,14.4366013 L18.4085447,14.4366013 Z" id="Shape"></path>
                        <path d="M10.6515354,10.0470588 L9.99465955,9.40130719 L9.33778371,10.0470588 C9.51935915,10.2248366 9.75700935,10.3137255 9.99465955,10.3137255 C10.2323097,10.3111111 10.4699599,10.2248366 10.6515354,10.0470588 Z" id="Shape"></path>
                    </g>
                </g>
            </g>
        </g>
    </g>
</svg>